<?xml version="1.0" encoding="utf-8"?>
<!-- Generator: Adobe Illustrator 24.2.1, SVG Export Plug-In . SVG Version: 6.00 Build 0)  -->
<svg version="1.1" id="Layer_1" xmlns="http://www.w3.org/2000/svg" xmlns:xlink="http://www.w3.org/1999/xlink" x="0px" y="0px"
	 viewBox="0 0 95.6 84" style="enable-background:new 0 0 95.6 84;" xml:space="preserve">
<style type="text/css">
	.st0{fill:#4B0E43;}
</style>
<path class="st0" d="M47.8,66c-1.1,0-2.1-0.4-2.9-1.1L15.1,39.1c-1.9-1.6-2.1-4.5-0.5-6.3c1.6-1.9,4.5-2.1,6.3-0.5l26.8,23.2
	l26.8-23.2c1.9-1.6,4.7-1.4,6.3,0.5c1.6,1.9,1.4,4.7-0.5,6.3L50.7,64.9C49.9,65.6,48.9,66,47.8,66z"/>
<g>
	<path class="st0" d="M47.8,66c-2.5,0-4.5-2-4.5-4.5v-57c0-2.5,2-4.5,4.5-4.5s4.5,2,4.5,4.5v57C52.3,64,50.3,66,47.8,66z"/>
</g>
<g>
	<path class="st0" d="M91.1,84H4.5C2,84,0,82,0,79.5S2,75,4.5,75h86.6c2.5,0,4.5,2,4.5,4.5S93.6,84,91.1,84z"/>
</g>
</svg>
